<svg xmlns="http://www.w3.org/2000/svg" xmlns:xlink="http://www.w3.org/1999/xlink" width="500" zoomAndPan="magnify" viewBox="0 0 375 374.999991" height="500" preserveAspectRatio="xMidYMid meet" version="1.0"><path fill="#010101" d="M 375.078125 187.539062 C 375.078125 190.605469 375 193.675781 374.851562 196.738281 C 374.699219 199.804688 374.472656 202.867188 374.171875 205.921875 C 373.871094 208.972656 373.496094 212.019531 373.046875 215.054688 C 372.597656 218.089844 372.070312 221.113281 371.472656 224.125 C 370.875 227.136719 370.203125 230.128906 369.457031 233.105469 C 368.710938 236.082031 367.890625 239.039062 367 241.976562 C 366.109375 244.914062 365.148438 247.828125 364.113281 250.71875 C 363.078125 253.609375 361.976562 256.46875 360.800781 259.304688 C 359.625 262.140625 358.382812 264.945312 357.070312 267.722656 C 355.757812 270.496094 354.378906 273.234375 352.933594 275.941406 C 351.484375 278.648438 349.972656 281.320312 348.394531 283.953125 C 346.816406 286.585938 345.175781 289.175781 343.46875 291.730469 C 341.765625 294.28125 340 296.789062 338.171875 299.253906 C 336.339844 301.71875 334.453125 304.136719 332.507812 306.511719 C 330.558594 308.882812 328.554688 311.207031 326.496094 313.480469 C 324.433594 315.753906 322.316406 317.976562 320.148438 320.148438 C 317.976562 322.316406 315.753906 324.433594 313.480469 326.496094 C 311.207031 328.554688 308.882812 330.558594 306.511719 332.507812 C 304.136719 334.453125 301.71875 336.339844 299.253906 338.171875 C 296.789062 340 294.28125 341.765625 291.730469 343.46875 C 289.175781 345.175781 286.585938 346.816406 283.953125 348.394531 C 281.320312 349.972656 278.648438 351.484375 275.941406 352.933594 C 273.234375 354.378906 270.496094 355.757812 267.722656 357.070312 C 264.945312 358.382812 262.140625 359.625 259.304688 360.800781 C 256.46875 361.976562 253.609375 363.078125 250.71875 364.113281 C 247.828125 365.148438 244.914062 366.109375 241.976562 367 C 239.039062 367.890625 236.082031 368.710938 233.105469 369.457031 C 230.128906 370.203125 227.136719 370.875 224.125 371.472656 C 221.113281 372.070312 218.089844 372.597656 215.054688 373.046875 C 212.019531 373.496094 208.972656 373.871094 205.921875 374.171875 C 202.867188 374.472656 199.804688 374.699219 196.738281 374.851562 C 193.675781 375 190.605469 375.078125 187.539062 375.078125 C 184.46875 375.078125 181.402344 375 178.335938 374.851562 C 175.269531 374.699219 172.210938 374.472656 169.15625 374.171875 C 166.101562 373.871094 163.054688 373.496094 160.019531 373.046875 C 156.984375 372.597656 153.960938 372.070312 150.953125 371.472656 C 147.941406 370.875 144.949219 370.203125 141.96875 369.457031 C 138.992188 368.710938 136.035156 367.890625 133.097656 367 C 130.160156 366.109375 127.25 365.148438 124.359375 364.113281 C 121.46875 363.078125 118.605469 361.976562 115.769531 360.800781 C 112.933594 359.625 110.128906 358.382812 107.355469 357.070312 C 104.582031 355.757812 101.839844 354.378906 99.132812 352.933594 C 96.425781 351.484375 93.757812 349.972656 91.125 348.394531 C 88.492188 346.816406 85.898438 345.175781 83.347656 343.46875 C 80.796875 341.765625 78.285156 340 75.820312 338.171875 C 73.355469 336.339844 70.9375 334.453125 68.566406 332.507812 C 66.191406 330.558594 63.871094 328.554688 61.59375 326.496094 C 59.320312 324.433594 57.097656 322.316406 54.929688 320.148438 C 52.757812 317.976562 50.644531 315.753906 48.582031 313.480469 C 46.519531 311.207031 44.515625 308.882812 42.570312 306.511719 C 40.621094 304.136719 38.734375 301.71875 36.90625 299.253906 C 35.078125 296.789062 33.3125 294.28125 31.605469 291.730469 C 29.902344 289.175781 28.257812 286.585938 26.679688 283.953125 C 25.101562 281.320312 23.589844 278.648438 22.144531 275.941406 C 20.699219 273.234375 19.316406 270.496094 18.003906 267.722656 C 16.695312 264.945312 15.449219 262.140625 14.277344 259.304688 C 13.101562 256.46875 11.996094 253.609375 10.960938 250.71875 C 9.929688 247.828125 8.964844 244.914062 8.074219 241.976562 C 7.183594 239.039062 6.367188 236.082031 5.621094 233.105469 C 4.875 230.128906 4.203125 227.136719 3.601562 224.125 C 3.003906 221.113281 2.480469 218.089844 2.03125 215.054688 C 1.578125 212.019531 1.203125 208.972656 0.902344 205.921875 C 0.601562 202.867188 0.375 199.804688 0.226562 196.738281 C 0.0742188 193.675781 0 190.605469 0 187.539062 C 0 184.46875 0.0742188 181.402344 0.226562 178.335938 C 0.375 175.269531 0.601562 172.210938 0.902344 169.15625 C 1.203125 166.101562 1.578125 163.054688 2.03125 160.019531 C 2.480469 156.984375 3.003906 153.960938 3.601562 150.953125 C 4.203125 147.941406 4.875 144.949219 5.621094 141.96875 C 6.367188 138.992188 7.183594 136.035156 8.074219 133.097656 C 8.964844 130.160156 9.929688 127.25 10.960938 124.359375 C 11.996094 121.46875 13.101562 118.605469 14.277344 115.769531 C 15.449219 112.933594 16.695312 110.128906 18.003906 107.355469 C 19.316406 104.582031 20.699219 101.839844 22.144531 99.132812 C 23.589844 96.425781 25.101562 93.757812 26.679688 91.125 C 28.257812 88.492188 29.902344 85.898438 31.605469 83.347656 C 33.3125 80.796875 35.078125 78.285156 36.90625 75.820312 C 38.734375 73.355469 40.621094 70.9375 42.570312 68.566406 C 44.515625 66.191406 46.519531 63.871094 48.582031 61.59375 C 50.644531 59.320312 52.757812 57.097656 54.929688 54.929688 C 57.097656 52.757812 59.320312 50.644531 61.59375 48.582031 C 63.871094 46.519531 66.191406 44.515625 68.566406 42.570312 C 70.9375 40.621094 73.355469 38.734375 75.820312 36.90625 C 78.285156 35.078125 80.796875 33.3125 83.347656 31.605469 C 85.898438 29.902344 88.492188 28.257812 91.125 26.679688 C 93.757812 25.101562 96.425781 23.589844 99.132812 22.144531 C 101.839844 20.699219 104.582031 19.316406 107.355469 18.003906 C 110.128906 16.695312 112.933594 15.449219 115.769531 14.277344 C 118.605469 13.101562 121.46875 11.996094 124.359375 10.960938 C 127.25 9.929688 130.160156 8.964844 133.097656 8.074219 C 136.035156 7.183594 138.992188 6.367188 141.96875 5.621094 C 144.949219 4.875 147.941406 4.203125 150.953125 3.601562 C 153.960938 3.003906 156.984375 2.480469 160.019531 2.03125 C 163.054688 1.578125 166.101562 1.203125 169.15625 0.902344 C 172.210938 0.601562 175.269531 0.375 178.335938 0.226562 C 181.402344 0.0742188 184.46875 0 187.539062 0 C 190.605469 0 193.675781 0.0742188 196.738281 0.226562 C 199.804688 0.375 202.867188 0.601562 205.921875 0.902344 C 208.972656 1.203125 212.019531 1.578125 215.054688 2.03125 C 218.089844 2.480469 221.113281 3.003906 224.125 3.601562 C 227.136719 4.203125 230.128906 4.875 233.105469 5.621094 C 236.082031 6.367188 239.039062 7.183594 241.976562 8.074219 C 244.914062 8.964844 247.828125 9.929688 250.71875 10.960938 C 253.609375 11.996094 256.46875 13.101562 259.304688 14.277344 C 262.140625 15.449219 264.945312 16.695312 267.722656 18.003906 C 270.496094 19.316406 273.234375 20.699219 275.941406 22.144531 C 278.648438 23.589844 281.320312 25.101562 283.953125 26.679688 C 286.585938 28.257812 289.175781 29.902344 291.730469 31.605469 C 294.28125 33.3125 296.789062 35.078125 299.253906 36.90625 C 301.71875 38.734375 304.136719 40.621094 306.511719 42.570312 C 308.882812 44.515625 311.207031 46.519531 313.480469 48.582031 C 315.753906 50.644531 317.976562 52.757812 320.148438 54.929688 C 322.316406 57.097656 324.433594 59.320312 326.496094 61.59375 C 328.554688 63.871094 330.558594 66.191406 332.507812 68.566406 C 334.453125 70.9375 336.339844 73.355469 338.171875 75.820312 C 340 78.285156 341.765625 80.796875 343.46875 83.347656 C 345.175781 85.898438 346.816406 88.492188 348.394531 91.125 C 349.972656 93.757812 351.484375 96.425781 352.933594 99.132812 C 354.378906 101.839844 355.757812 104.582031 357.070312 107.355469 C 358.382812 110.128906 359.625 112.933594 360.800781 115.769531 C 361.976562 118.605469 363.078125 121.46875 364.113281 124.359375 C 365.148438 127.25 366.109375 130.160156 367 133.097656 C 367.890625 136.035156 368.710938 138.992188 369.457031 141.96875 C 370.203125 144.945312 370.875 147.941406 371.472656 150.953125 C 372.070312 153.960938 372.597656 156.984375 373.046875 160.019531 C 373.496094 163.054688 373.871094 166.101562 374.171875 169.15625 C 374.472656 172.210938 374.699219 175.269531 374.851562 178.335938 C 375 181.402344 375.078125 184.46875 375.078125 187.539062 Z M 375.078125 187.539062 " fill-opacity="0.8" fill-rule="nonzero"/><path fill="#ffffff" d="M 321.84375 231.390625 C 319.859375 229.636719 317.722656 226.585938 317.113281 221.933594 C 316.808594 219.722656 316.960938 216.976562 317.722656 213.773438 C 319.554688 206.222656 319.9375 204.164062 319.785156 203.171875 C 319.554688 201.265625 318.183594 200.425781 316.582031 200.425781 C 313.222656 200.425781 308.648438 203.78125 307.429688 208.433594 C 305.597656 215.527344 300.5625 220.332031 297.132812 220.332031 C 292.9375 220.332031 290.800781 215.832031 290.191406 211.179688 C 288.742188 199.589844 296.140625 185.328125 306.96875 185.328125 C 310.175781 185.328125 313.53125 186.621094 313.988281 189.824219 C 314.597656 194.785156 309.335938 193.714844 309.5625 195.773438 C 309.792969 197.835938 313.453125 198.519531 315.816406 198.519531 C 318.257812 198.519531 325.273438 196.917969 324.28125 188.683594 C 323.519531 182.277344 316.734375 179.226562 308.800781 179.226562 C 299.574219 179.226562 291.640625 183.878906 286.300781 190.359375 C 285.539062 190.742188 284.855469 191.503906 284.015625 192.417969 C 282.261719 194.476562 279.058594 196.460938 274.863281 196.460938 C 274.40625 196.460938 273.261719 196.308594 273.261719 196.308594 C 276.007812 190.96875 277.914062 185.554688 277.914062 180.75 C 277.914062 173.046875 273.109375 169.15625 267.769531 169.15625 C 260.980469 169.15625 254.117188 175.105469 254.117188 186.699219 C 254.117188 193.640625 256.863281 199.207031 261.667969 202.257812 C 256.175781 211.257812 248.628906 218.65625 247.558594 218.65625 C 246.949219 218.65625 246.71875 218.042969 246.566406 217.359375 C 245.804688 214.308594 244.964844 208.359375 244.964844 204.699219 C 244.964844 198.140625 246.261719 191.503906 248.703125 184.410156 C 249.007812 183.574219 249.160156 182.808594 249.160156 182.199219 C 249.160156 180.292969 247.863281 179.300781 246.109375 179.300781 C 242.601562 179.300781 237.261719 183.34375 235.96875 187.460938 C 234.671875 191.503906 234.214844 196.917969 234.214844 203.707031 C 234.214844 204.925781 234.214844 206.148438 234.289062 207.367188 C 227.730469 215.984375 219.644531 219.113281 217.128906 219.113281 C 214.003906 219.113281 213.390625 216.519531 213.699219 214.765625 C 215.375 206.679688 217.96875 197.222656 220.257812 190.96875 C 221.324219 187.917969 221.78125 185.171875 221.628906 183.570312 C 221.246094 180.675781 219.1875 179.226562 216.441406 179.226562 C 210.035156 179.226562 199.28125 186.011719 192.34375 195.164062 L 194.554688 185.25 C 194.785156 184.257812 194.785156 183.496094 194.707031 182.808594 C 194.476562 180.902344 193.257812 180.0625 191.65625 180.0625 C 183.800781 180.0625 182.351562 184.03125 181.664062 187.917969 C 181.511719 188.835938 179.226562 200.65625 177.320312 210.1875 C 171.445312 215.453125 165.039062 218.882812 163.363281 218.882812 C 161.148438 218.882812 160.464844 217.128906 160.386719 215.910156 C 160.3125 214.460938 161.914062 207.519531 162.292969 205.382812 C 162.523438 204.394531 162.523438 203.628906 162.445312 202.945312 C 162.21875 201.191406 160.996094 200.351562 159.242188 200.351562 C 155.886719 200.351562 151.3125 203.554688 150.089844 208.359375 C 148.261719 215.453125 143.378906 220.257812 139.949219 220.257812 C 135.753906 220.257812 133.464844 215.757812 132.933594 211.257812 C 131.710938 201.265625 138.117188 185.25 149.632812 185.25 C 152.835938 185.25 156.191406 186.394531 156.574219 189.597656 C 157.183594 194.707031 152.074219 193.488281 152.304688 195.699219 C 152.53125 197.757812 156.191406 198.445312 158.40625 198.445312 C 160.996094 198.445312 167.863281 196.84375 166.871094 188.835938 C 166.105469 182.429688 159.394531 179.226562 151.386719 179.226562 C 132.855469 179.226562 120.347656 197.375 121.492188 211.867188 C 116.6875 217.433594 111.882812 220.867188 103.417969 225.214844 C 98.535156 227.652344 93.121094 229.101562 88.011719 229.101562 C 72.605469 229.101562 65.054688 214.992188 63.53125 202.714844 C 59.714844 171.371094 87.324219 128.28125 106.621094 128.28125 C 111.121094 128.28125 115.160156 132.167969 115.847656 138.269531 C 116.992188 147.726562 116.839844 154.4375 107 162.597656 C 105.933594 163.515625 105.628906 164.964844 106.164062 165.800781 C 107 167.097656 109.59375 167.175781 114.933594 164.503906 C 125.382812 159.242188 129.117188 151.160156 127.972656 141.777344 C 126.679688 131.40625 117.601562 122.710938 105.398438 122.710938 C 99.449219 122.710938 92.890625 124.464844 87.097656 128.050781 C 61.699219 143.457031 45.226562 178.691406 48.582031 205.535156 C 49.648438 214.078125 53.15625 223.382812 59.867188 229.636719 C 64.367188 233.832031 72.605469 238.941406 82.214844 238.941406 C 92.664062 238.941406 101.511719 234.898438 109.367188 229.941406 C 114.703125 226.511719 119.203125 222.390625 123.015625 218.121094 C 125.6875 223.765625 131.175781 227.5 136.972656 227.5 C 141.472656 227.5 145.667969 225.214844 148.871094 221.09375 C 149.863281 224.984375 152.53125 227.5 157.335938 227.5 C 160.84375 227.5 168.394531 223.992188 175.410156 218.808594 C 174.953125 221.09375 174.726562 222.542969 174.726562 222.542969 C 174.496094 223.535156 174.496094 224.296875 174.574219 224.984375 C 174.800781 226.738281 176.023438 227.578125 177.625 227.578125 C 180.980469 227.578125 185.9375 224.375 186.929688 219.339844 L 188.453125 212.25 C 190.4375 203.402344 203.402344 190.054688 207.136719 190.054688 C 207.597656 190.054688 207.976562 190.359375 208.054688 191.046875 C 208.359375 193.257812 203.933594 200.65625 202.027344 212.554688 C 201.648438 214.765625 201.570312 216.902344 201.800781 218.65625 C 202.488281 223.992188 205.613281 227.5 211.410156 227.5 C 216.441406 227.5 227.121094 223.308594 234.746094 214.992188 C 235.355469 219.644531 236.347656 223.613281 237.796875 226.128906 C 238.40625 227.273438 239.855469 227.578125 241.152344 227.578125 C 242.753906 227.578125 245.042969 226.96875 247.40625 225.671875 C 253.203125 222.46875 260.753906 215.222656 268 204.773438 C 268.992188 204.925781 269.753906 204.925781 270.746094 204.925781 C 273.640625 204.925781 276.847656 203.859375 279.894531 202.027344 C 278.753906 205.6875 278.371094 209.351562 278.753906 212.78125 C 279.742188 221.171875 286.988281 227.578125 294.386719 227.578125 C 298.734375 227.578125 302.929688 225.289062 306.132812 221.324219 C 307.125 226.664062 310.554688 232.230469 318.792969 235.660156 C 319.324219 235.96875 319.9375 235.96875 320.46875 235.96875 C 322.070312 235.96875 323.0625 234.824219 322.910156 233.527344 C 322.988281 232.839844 322.605469 232.078125 321.84375 231.390625 Z M 266.246094 192.800781 C 263.347656 189.75 261.136719 185.097656 261.136719 180.597656 C 261.136719 178.15625 261.972656 175.257812 264.03125 175.257812 C 265.785156 175.257812 268.074219 177.851562 268.074219 183.648438 C 268 186.699219 267.386719 189.75 266.246094 192.800781 Z M 148.949219 157.183594 L 147.421875 157.183594 L 147.421875 133.921875 L 149.9375 133.921875 L 158.175781 154.363281 L 158.253906 154.363281 L 166.488281 133.921875 L 168.929688 133.921875 L 168.929688 157.183594 L 167.328125 157.183594 L 167.328125 139.566406 C 167.328125 138.347656 167.402344 137.050781 167.480469 135.753906 L 167.328125 135.753906 L 158.632812 157.183594 L 157.566406 157.183594 L 148.949219 135.753906 L 148.796875 135.753906 C 148.871094 137.050781 148.949219 138.421875 148.949219 139.796875 Z M 189.0625 133.847656 L 187.996094 133.847656 L 178.613281 157.183594 L 180.445312 157.183594 L 183.726562 148.949219 L 193.183594 148.949219 L 196.386719 157.183594 L 198.214844 157.183594 Z M 184.335938 147.574219 L 187.613281 139.183594 C 187.917969 138.347656 188.300781 137.429688 188.53125 136.441406 L 189.445312 139.183594 L 192.648438 147.574219 Z M 222.847656 136.898438 C 220.941406 134.992188 218.121094 134 214.382812 134 L 208.128906 134 L 208.128906 157.261719 L 213.699219 157.261719 C 217.664062 157.261719 220.636719 156.269531 222.695312 154.285156 C 224.757812 152.304688 225.746094 149.328125 225.746094 145.4375 C 225.746094 141.625 224.757812 138.804688 222.847656 136.898438 Z M 213.542969 155.8125 L 209.730469 155.8125 L 209.730469 135.449219 L 214.003906 135.449219 C 217.28125 135.449219 219.796875 136.289062 221.476562 137.964844 C 223.15625 139.644531 223.992188 142.160156 223.992188 145.515625 C 223.992188 152.304688 220.484375 155.8125 213.542969 155.8125 Z M 250.304688 157.183594 L 237.570312 157.183594 L 237.570312 133.921875 L 250.304688 133.921875 L 250.304688 135.449219 L 239.246094 135.449219 L 239.246094 144.21875 L 249.695312 144.21875 L 249.695312 145.746094 L 239.246094 145.746094 L 239.246094 155.734375 L 250.304688 155.734375 Z M 278.675781 157.183594 L 277.074219 157.183594 L 277.074219 133.921875 L 278.675781 133.921875 Z M 293.320312 157.183594 L 291.792969 157.183594 L 291.792969 133.921875 L 293.394531 133.921875 L 307.125 154.515625 L 307.199219 154.515625 C 307.125 152.609375 307.046875 150.777344 307.046875 149.101562 L 307.046875 133.921875 L 308.648438 133.921875 L 308.648438 157.183594 L 307.046875 157.183594 L 293.242188 136.515625 L 293.089844 136.515625 C 293.242188 138.957031 293.242188 140.863281 293.242188 142.082031 L 293.242188 157.183594 Z M 293.320312 157.183594 " fill-opacity="0.8" fill-rule="nonzero"/></svg>