<svg xmlns="http://www.w3.org/2000/svg" xmlns:xlink="http://www.w3.org/1999/xlink" width="500" zoomAndPan="magnify" viewBox="0 0 375 374.999991" height="500" preserveAspectRatio="xMidYMid meet" version="1.0"><defs><clipPath id="442f1d7944"><path d="M 56 75 L 319.246094 75 L 319.246094 373.296875 L 56 373.296875 Z M 56 75 " clip-rule="nonzero"/></clipPath><clipPath id="61dd927304"><path d="M 118 2.046875 L 158 2.046875 L 158 53 L 118 53 Z M 118 2.046875 " clip-rule="nonzero"/></clipPath><clipPath id="1bbe0e5219"><path d="M 165 2.046875 L 206 2.046875 L 206 53 L 165 53 Z M 165 2.046875 " clip-rule="nonzero"/></clipPath><clipPath id="7619f28bec"><path d="M 213 2.046875 L 254 2.046875 L 254 53 L 213 53 Z M 213 2.046875 " clip-rule="nonzero"/></clipPath></defs><g clip-path="url(#442f1d7944)"><path fill="#264de4" d="M 187.507812 373.285156 L 80.105469 343.472656 L 56.171875 75.007812 L 319.167969 75.003906 L 295.21875 343.425781 L 187.515625 373.28125 Z M 187.507812 373.285156 " fill-opacity="1" fill-rule="nonzero"/></g><path fill="#2965f1" d="M 274.707031 326.335938 L 295.179688 96.957031 L 187.671875 96.953125 L 187.671875 350.457031 L 274.707031 326.332031 Z M 274.707031 326.335938 " fill-opacity="1" fill-rule="nonzero"/><path fill="#ebebeb" d="M 111.042969 196.527344 L 113.992188 229.445312 L 187.671875 229.445312 L 187.671875 196.527344 Z M 111.042969 196.527344 " fill-opacity="1" fill-rule="nonzero"/><path fill="#ebebeb" d="M 105.113281 129.875 L 108.105469 162.804688 L 187.671875 162.804688 L 187.671875 129.875 Z M 105.113281 129.875 " fill-opacity="1" fill-rule="nonzero"/><path fill="#ebebeb" d="M 187.671875 282.035156 L 187.527344 282.078125 L 150.859375 272.171875 L 148.515625 245.910156 L 115.464844 245.910156 L 120.074219 297.613281 L 187.519531 316.335938 L 187.671875 316.296875 Z M 187.671875 282.035156 " fill-opacity="1" fill-rule="nonzero"/><g clip-path="url(#61dd927304)"><path fill="#000000" d="M 118.066406 2.046875 L 157.945312 2.046875 L 157.945312 18.722656 L 134.742188 18.722656 L 134.742188 35.402344 L 157.945312 35.402344 L 157.945312 52.078125 L 118.066406 52.078125 Z M 118.066406 2.046875 " fill-opacity="1" fill-rule="nonzero"/></g><g clip-path="url(#1bbe0e5219)"><path fill="#000000" d="M 165.921875 2.046875 L 205.796875 2.046875 L 205.796875 16.546875 L 182.601562 16.546875 L 182.601562 19.449219 L 205.796875 19.449219 L 205.796875 52.800781 L 165.921875 52.800781 L 165.921875 37.578125 L 189.128906 37.578125 L 189.128906 34.675781 L 165.921875 34.675781 Z M 165.921875 2.046875 " fill-opacity="1" fill-rule="nonzero"/></g><g clip-path="url(#7619f28bec)"><path fill="#000000" d="M 213.777344 2.046875 L 253.65625 2.046875 L 253.65625 16.546875 L 230.449219 16.546875 L 230.449219 19.449219 L 253.65625 19.449219 L 253.65625 52.800781 L 213.777344 52.800781 L 213.777344 37.578125 L 236.972656 37.578125 L 236.972656 34.675781 L 213.777344 34.675781 Z M 213.777344 2.046875 " fill-opacity="1" fill-rule="nonzero"/></g><path fill="#ffffff" d="M 264.097656 196.527344 L 270.035156 129.875 L 187.558594 129.875 L 187.558594 162.804688 L 233.953125 162.804688 L 230.964844 196.527344 L 187.558594 196.527344 L 187.558594 229.445312 L 228.109375 229.445312 L 224.28125 272.148438 L 187.558594 282.066406 L 187.558594 316.316406 L 255.054688 297.613281 L 255.550781 292.046875 L 263.292969 205.363281 Z M 264.097656 196.527344 " fill-opacity="1" fill-rule="nonzero"/></svg>