<svg xmlns="http://www.w3.org/2000/svg" xmlns:xlink="http://www.w3.org/1999/xlink" width="500" zoomAndPan="magnify" viewBox="0 0 375 374.999991" height="500" preserveAspectRatio="xMidYMid meet" version="1.0"><defs><clipPath id="19f10e6dd7"><path d="M 55.550781 75 L 319.550781 75 L 319.550781 374.835938 L 55.550781 374.835938 Z M 55.550781 75 " clip-rule="nonzero"/></clipPath><clipPath id="fcc8e22906"><path d="M 80 2.835938 L 130 2.835938 L 130 53 L 80 53 Z M 80 2.835938 " clip-rule="nonzero"/></clipPath><clipPath id="ebd16cd858"><path d="M 136 2.835938 L 183 2.835938 L 183 53 L 136 53 Z M 136 2.835938 " clip-rule="nonzero"/></clipPath><clipPath id="89f8c54a5f"><path d="M 190 2.835938 L 247 2.835938 L 247 53 L 190 53 Z M 190 2.835938 " clip-rule="nonzero"/></clipPath><clipPath id="59362f3ab2"><path d="M 255 2.835938 L 296 2.835938 L 296 53 L 255 53 Z M 255 2.835938 " clip-rule="nonzero"/></clipPath></defs><g clip-path="url(#19f10e6dd7)"><path fill="#e44d26" d="M 319.476562 75.9375 L 295.449219 344.902344 L 187.4375 374.820312 L 79.722656 344.945312 L 55.722656 75.9375 L 319.472656 75.933594 L 319.484375 75.933594 Z M 319.476562 75.9375 " fill-opacity="1" fill-rule="nonzero"/></g><path fill="#f16529" d="M 187.601562 351.953125 L 274.886719 327.777344 L 295.417969 97.9375 L 187.601562 97.933594 Z M 187.601562 351.953125 " fill-opacity="1" fill-rule="nonzero"/><path fill="#ebebeb" d="M 140.890625 163.917969 L 187.601562 163.917969 L 187.601562 130.921875 L 104.804688 130.921875 L 105.59375 139.773438 L 113.710938 230.695312 L 187.601562 230.695312 L 187.601562 197.707031 L 143.90625 197.707031 Z M 140.890625 163.917969 " fill-opacity="1" fill-rule="nonzero"/><path fill="#ebebeb" d="M 148.332031 247.191406 L 115.183594 247.191406 L 119.808594 299 L 187.445312 317.757812 L 187.601562 317.71875 L 187.601562 283.390625 L 187.457031 283.429688 L 150.683594 273.503906 Z M 148.332031 247.191406 " fill-opacity="1" fill-rule="nonzero"/><g clip-path="url(#fcc8e22906)"><path fill="#000000" d="M 80.261719 2.835938 L 97.042969 2.835938 L 97.042969 19.398438 L 112.390625 19.398438 L 112.390625 2.835938 L 129.171875 2.835938 L 129.171875 52.996094 L 112.394531 52.996094 L 112.394531 36.199219 L 97.042969 36.199219 L 97.042969 52.996094 L 80.261719 52.996094 Z M 80.261719 2.835938 " fill-opacity="1" fill-rule="nonzero"/></g><g clip-path="url(#ebd16cd858)"><path fill="#000000" d="M 151.242188 19.46875 L 136.46875 19.46875 L 136.46875 2.835938 L 182.804688 2.835938 L 182.804688 19.46875 L 168.019531 19.46875 L 168.019531 52.996094 L 151.242188 52.996094 Z M 151.242188 19.46875 " fill-opacity="1" fill-rule="nonzero"/></g><g clip-path="url(#89f8c54a5f)"><path fill="#000000" d="M 190.15625 2.835938 L 207.648438 2.835938 L 218.414062 20.460938 L 229.164062 2.835938 L 246.667969 2.835938 L 246.667969 52.996094 L 229.960938 52.996094 L 229.960938 28.132812 L 218.414062 45.96875 L 218.125 45.96875 L 206.574219 28.132812 L 206.574219 52.996094 L 190.15625 52.996094 Z M 190.15625 2.835938 " fill-opacity="1" fill-rule="nonzero"/></g><g clip-path="url(#59362f3ab2)"><path fill="#000000" d="M 255.023438 2.835938 L 271.804688 2.835938 L 271.804688 36.417969 L 295.410156 36.417969 L 295.410156 52.996094 L 255.023438 52.996094 Z M 255.023438 2.835938 " fill-opacity="1" fill-rule="nonzero"/></g><path fill="#ffffff" d="M 187.488281 230.695312 L 228.152344 230.695312 L 224.316406 273.480469 L 187.488281 283.421875 L 187.488281 317.738281 L 255.179688 299 L 255.675781 293.421875 L 263.441406 206.5625 L 264.246094 197.707031 L 187.488281 197.707031 Z M 187.488281 230.695312 " fill-opacity="1" fill-rule="nonzero"/><path fill="#ffffff" d="M 187.488281 163.835938 L 187.488281 163.917969 L 267.246094 163.917969 L 267.90625 156.5 L 269.414062 139.773438 L 270.203125 130.921875 L 187.488281 130.921875 Z M 187.488281 163.835938 " fill-opacity="1" fill-rule="nonzero"/></svg>