<svg xmlns="http://www.w3.org/2000/svg" xmlns:xlink="http://www.w3.org/1999/xlink" width="500" zoomAndPan="magnify" viewBox="0 0 375 374.999991" height="500" preserveAspectRatio="xMidYMid meet" version="1.0"><defs><clipPath id="cbf80376a9"><path d="M 94 168 L 339 168 L 339 261.9375 L 94 261.9375 Z M 94 168 " clip-rule="nonzero"/></clipPath><clipPath id="d5cc0b95f4"><path d="M 195 113.4375 L 281 113.4375 L 281 261.9375 L 195 261.9375 Z M 195 113.4375 " clip-rule="nonzero"/></clipPath><clipPath id="ee36ee97ca"><path d="M 94 168 L 180 168 L 180 261.9375 L 94 261.9375 Z M 94 168 " clip-rule="nonzero"/></clipPath><clipPath id="0158b0e57d"><path d="M 1 167 L 374 167 L 374 261.9375 L 1 261.9375 Z M 1 167 " clip-rule="nonzero"/></clipPath></defs><g clip-path="url(#cbf80376a9)"><path fill="#388e3c" d="M 134.796875 168.808594 L 96.742188 189.917969 C 95.3125 190.703125 94.4375 192.164062 94.4375 193.742188 L 94.4375 235.984375 C 94.4375 237.5625 95.3125 239.015625 96.742188 239.808594 L 134.804688 260.933594 C 136.222656 261.71875 137.984375 261.71875 139.402344 260.933594 L 177.457031 239.808594 C 178.867188 239.015625 179.746094 237.5625 179.746094 235.984375 L 179.746094 193.742188 C 179.746094 192.164062 178.867188 190.710938 177.441406 189.917969 L 139.394531 168.808594 C 138.679688 168.414062 137.882812 168.21875 137.089844 168.21875 C 136.292969 168.21875 135.5 168.414062 134.789062 168.808594 M 330.59375 206.835938 L 324.246094 210.351562 C 324.007812 210.484375 323.867188 210.722656 323.867188 210.988281 L 323.867188 218.03125 C 323.867188 218.296875 324.015625 218.539062 324.246094 218.671875 L 330.59375 222.191406 C 330.832031 222.324219 331.121094 222.324219 331.359375 222.191406 L 337.703125 218.671875 C 337.9375 218.539062 338.082031 218.296875 338.082031 218.03125 L 338.082031 210.988281 C 338.082031 210.722656 337.9375 210.484375 337.695312 210.351562 L 331.351562 206.835938 C 331.234375 206.765625 331.105469 206.734375 330.972656 206.734375 C 330.839844 206.734375 330.707031 206.765625 330.59375 206.835938 " fill-opacity="1" fill-rule="nonzero"/></g><g clip-path="url(#d5cc0b95f4)"><path fill="#37474f" d="M 278.632812 124.042969 L 260.105469 113.679688 C 259.523438 113.351562 258.808594 113.359375 258.234375 113.703125 C 257.660156 114.042969 257.304688 114.65625 257.304688 115.328125 L 257.296875 177.929688 L 240.210938 168.453125 C 239.5 168.054688 238.699219 167.863281 237.910156 167.863281 C 237.117188 167.863281 236.320312 168.054688 235.605469 168.453125 L 235.613281 168.453125 L 197.558594 189.5625 C 196.132812 190.347656 195.253906 191.808594 195.253906 193.378906 L 195.253906 235.621094 C 195.253906 237.199219 196.132812 238.652344 197.558594 239.445312 L 235.621094 260.570312 C 237.039062 261.355469 238.800781 261.355469 240.21875 260.570312 L 278.273438 239.445312 C 279.6875 238.660156 280.5625 237.199219 280.5625 235.621094 L 280.5625 127.339844 C 280.5625 125.96875 279.816406 124.710938 278.632812 124.042969 Z M 256.257812 225.847656 L 238.964844 235.449219 C 238.320312 235.804688 237.519531 235.804688 236.878906 235.449219 L 219.574219 225.847656 C 218.917969 225.488281 218.519531 224.820312 218.519531 224.105469 L 218.519531 204.902344 C 218.519531 204.1875 218.917969 203.523438 219.566406 203.160156 L 236.871094 193.566406 L 236.863281 193.566406 C 237.1875 193.386719 237.542969 193.300781 237.910156 193.300781 C 238.273438 193.300781 238.628906 193.394531 238.957031 193.566406 L 256.25 203.160156 C 256.902344 203.523438 257.296875 204.195312 257.296875 204.910156 L 257.296875 224.113281 C 257.296875 224.820312 256.902344 225.488281 256.257812 225.847656 Z M 256.257812 225.847656 " fill-opacity="1" fill-rule="nonzero"/></g><g clip-path="url(#ee36ee97ca)"><path fill="#2e7d32" d="M 134.796875 168.808594 L 94.4375 235.984375 C 94.4375 237.5625 95.3125 239.015625 96.742188 239.808594 L 134.804688 260.933594 C 136.222656 261.71875 137.984375 261.71875 139.402344 260.933594 L 179.746094 193.742188 C 179.746094 192.164062 178.867188 190.710938 177.441406 189.917969 L 139.394531 168.808594 C 138.679688 168.414062 137.882812 168.21875 137.089844 168.21875 C 136.292969 168.21875 135.5 168.414062 134.789062 168.808594 " fill-opacity="1" fill-rule="nonzero"/><path fill="#4caf50" d="M 134.796875 168.808594 L 96.742188 189.917969 C 95.3125 190.703125 94.4375 192.164062 94.4375 193.742188 L 134.796875 260.933594 C 136.214844 261.71875 137.976562 261.71875 139.394531 260.933594 L 177.449219 239.808594 C 178.867188 239.015625 179.746094 237.5625 179.746094 235.984375 L 139.394531 168.808594 C 138.679688 168.414062 137.882812 168.21875 137.089844 168.21875 C 136.292969 168.21875 135.5 168.414062 134.789062 168.808594 " fill-opacity="1" fill-rule="nonzero"/></g><g clip-path="url(#0158b0e57d)"><path fill="#37474f" d="M 371.324219 189.5625 L 333.273438 168.453125 C 332.5625 168.054688 331.761719 167.863281 330.972656 167.863281 C 330.179688 167.863281 329.382812 168.054688 328.667969 168.453125 L 328.675781 168.453125 L 290.621094 189.5625 C 289.203125 190.347656 288.316406 191.839844 288.316406 193.472656 L 288.316406 235.542969 C 288.316406 237.167969 289.203125 238.667969 290.621094 239.453125 L 328.683594 260.578125 C 330.109375 261.371094 331.855469 261.371094 333.28125 260.578125 L 350.832031 250.835938 C 352.4375 249.941406 352.429688 247.632812 350.816406 246.746094 L 312.628906 225.855469 C 311.988281 225.488281 311.582031 224.8125 311.582031 224.082031 L 311.582031 204.910156 C 311.582031 204.195312 311.972656 203.53125 312.59375 203.191406 L 329.925781 193.582031 L 329.917969 193.582031 C 330.242188 193.402344 330.597656 193.316406 330.964844 193.316406 C 331.328125 193.316406 331.683594 193.410156 332.011719 193.582031 L 349.34375 203.199219 C 349.964844 203.539062 350.351562 204.203125 350.351562 204.917969 L 350.351562 220.558594 C 350.351562 221.226562 350.707031 221.851562 351.289062 222.183594 C 351.871094 222.511719 352.585938 222.511719 353.167969 222.175781 L 371.765625 211.347656 C 372.914062 210.679688 373.625 209.441406 373.625 208.105469 L 373.625 193.488281 C 373.625 191.847656 372.742188 190.347656 371.324219 189.5625 Z M 84.378906 189.5625 L 46.332031 168.453125 C 45.617188 168.054688 44.820312 167.863281 44.027344 167.863281 C 43.238281 167.863281 42.4375 168.054688 41.726562 168.453125 L 41.734375 168.453125 L 3.675781 189.5625 C 2.257812 190.347656 1.375 191.839844 1.375 193.472656 L 1.375 251.511719 C 1.375 252.179688 1.730469 252.800781 2.3125 253.136719 C 2.894531 253.460938 3.609375 253.460938 4.191406 253.128906 L 22.785156 242.296875 C 23.933594 241.628906 24.640625 240.394531 24.640625 239.054688 L 24.640625 204.902344 C 24.640625 204.1875 25.027344 203.523438 25.648438 203.183594 L 42.980469 193.574219 C 43.308594 193.394531 43.664062 193.308594 44.027344 193.308594 C 44.394531 193.308594 44.75 193.402344 45.074219 193.574219 L 62.40625 203.191406 C 63.027344 203.53125 63.417969 204.195312 63.417969 204.910156 L 63.417969 239.0625 C 63.417969 240.402344 64.121094 241.636719 65.277344 242.304688 L 83.875 253.136719 C 84.457031 253.46875 85.167969 253.46875 85.75 253.144531 C 86.324219 252.800781 86.683594 252.179688 86.683594 251.511719 L 86.683594 193.480469 C 86.683594 191.847656 85.796875 190.347656 84.378906 189.5625 Z M 84.378906 189.5625 " fill-opacity="1" fill-rule="nonzero"/></g></svg>