<svg xmlns="http://www.w3.org/2000/svg" xmlns:xlink="http://www.w3.org/1999/xlink" width="500" zoomAndPan="magnify" viewBox="0 0 375 374.999991" height="500" preserveAspectRatio="xMidYMid meet" version="1.0"><path fill="#000000" d="M 201.265625 254.207031 C 179.035156 254.207031 157.292969 246.089844 140.902344 229.671875 C 131.734375 220.535156 131.734375 205.742188 140.875 196.605469 C 150.011719 187.46875 164.816406 187.46875 173.941406 196.589844 C 189.914062 212.535156 217.628906 210.808594 235.714844 192.691406 L 307.851562 120.554688 C 317.503906 110.941406 323.015625 98.382812 323.015625 86.09375 C 323.015625 78.753906 321.058594 68.105469 311.792969 58.808594 C 301.847656 48.851562 290.4375 47.210938 282.464844 47.613281 C 270.710938 48.148438 259.183594 53.515625 250.019531 62.679688 L 208.632812 104.035156 C 198.964844 94.367188 159.234375 87.273438 148.472656 98.050781 L 216.90625 29.628906 C 234.320312 12.214844 256.78125 2.015625 280.222656 0.890625 C 304.667969 -0.230469 327.605469 8.5625 344.789062 25.742188 C 360.890625 41.816406 369.753906 63.257812 369.753906 86.105469 C 369.738281 110.714844 359.21875 135.332031 340.859375 153.636719 L 268.738281 225.757812 C 249.886719 244.679688 225.3125 254.207031 201.265625 254.207031 Z M 201.265625 254.207031 " fill-opacity="1" fill-rule="nonzero"/><path fill="#000000" d="M 168.542969 117.042969 C 190.746094 117.042969 212.503906 125.160156 228.921875 141.578125 C 238.074219 150.714844 238.058594 165.507812 228.921875 174.644531 C 219.800781 183.78125 204.992188 183.78125 195.855469 174.644531 C 179.898438 158.714844 152.183594 160.457031 134.082031 178.546875 L 61.945312 250.679688 C 52.304688 260.292969 46.78125 272.855469 46.78125 285.144531 C 46.78125 292.453125 48.738281 303.128906 58.019531 312.425781 C 67.960938 322.355469 79.371094 324.023438 87.34375 323.648438 C 99.101562 323.089844 110.625 317.722656 119.792969 308.554688 L 161.132812 267.226562 C 170.804688 276.882812 210.535156 283.976562 221.3125 273.199219 L 152.875 341.621094 C 135.476562 359.035156 113 369.234375 89.574219 370.359375 C 65.113281 371.507812 42.175781 362.703125 24.980469 345.507812 C 8.878906 329.433594 0.0273438 307.992188 0.0273438 285.144531 C 0.0429688 260.535156 10.546875 235.917969 28.910156 217.613281 L 101.027344 145.492188 C 119.90625 126.597656 144.515625 117.042969 168.542969 117.042969 Z M 168.542969 117.042969 " fill-opacity="1" fill-rule="nonzero"/></svg>